# xmcd CD database file
#
# Track frame offsets:
#	150
#	14614
#	32851
#	47728
#	61731
#	75686
#	91945
#	108243
#	122237
#	136250
#	151828
#	167175
#	181668
#	197505
#
# Disc length: 2835 seconds
#
# Revision: 0
# Processed by: cddbd v1.4PL0 Copyright (c) Steve Scherf et al.
# Submitted via: CDex 1.50
#
DISCID=ac0b110e
DTITLE=Kastelruther Spatzen - Herzschlag für Herzschlag
DYEAR=1900
DGENRE=Volksmusik
TTITLE0=Herzschlag für Herzschlag
TTITLE1=Laura's schönster Tag
TTITLE2=Der Adler von der Schartenwand
TTITLE3=Wenn der Tag beginnt
TTITLE4=Mir geht's gut
TTITLE5=Ich hätte nie gedacht
TTITLE6=Benny, mein schweigender Freun
TTITLE7=Daheim in Kastelruth
TTITLE8=Gloria alla Montagna
TTITLE9=Stiller Schatten Einsamkeit
TTITLE10=Und wieder blüh'n die Alpenros
TTITLE11=Kinder
TTITLE12=Das zweite Paradies
TTITLE13=Träume sind nur Fantasie
EXTD=
EXTT0=
EXTT1=
EXTT2=
EXTT3=
EXTT4=
EXTT5=
EXTT6=
EXTT7=
EXTT8=
EXTT9=
EXTT10=
EXTT11=
EXTT12=
EXTT13=
PLAYORDER=
